<!DOCTYPE svg PUBLIC "-//W3C//DTD SVG 1.1//EN" "http://www.w3.org/Graphics/SVG/1.1/DTD/svg11.dtd">
<!-- Uploaded to: SVG Repo, www.svgrepo.com, Transformed by: SVG Repo Mixer Tools -->
<svg fill="#ffffff" width="800px" height="800px" viewBox="0 0 64 64" xmlns="http://www.w3.org/2000/svg" stroke="#ffffff">
<g id="SVGRepo_bgCarrier" stroke-width="0"/>
<g id="SVGRepo_tracerCarrier" stroke-linecap="round" stroke-linejoin="round"/>
<g id="SVGRepo_iconCarrier"> <g data-name="18 search" id="_18_search"> <path d="M35.13,14.54a14.565,14.565,0,1,0,0,20.59A14.446,14.446,0,0,0,35.13,14.54ZM24.84,37.4a12.56,12.56,0,1,1,8.88-3.68A12.473,12.473,0,0,1,24.84,37.4Z"/> <path d="M58.89,51.12,43.3,35.54a21.344,21.344,0,1,0-7.77,7.76L51.12,58.89a5.494,5.494,0,1,0,7.77-7.77ZM11.16,38.51A19.339,19.339,0,1,1,44.17,24.84a19.131,19.131,0,0,1-2.96,10.28.052.052,0,0,1-.02.04,19.455,19.455,0,0,1-5.98,6l-.09.06a19.372,19.372,0,0,1-23.96-2.71ZM57.48,57.48a3.5,3.5,0,0,1-4.94,0L37.25,42.19a21.965,21.965,0,0,0,2.67-2.27,22.8,22.8,0,0,0,2.27-2.66L57.48,52.54A3.5,3.5,0,0,1,57.48,57.48Z"/> </g> </g>
</svg>